<svg width="220" height="263" viewBox="0 0 220 263" fill="none" xmlns="http://www.w3.org/2000/svg">
<path d="M194.849 127.375H185.955V78.563C185.955 67.9949 183.944 57.7333 179.978 48.0628C176.152 38.7316 170.678 30.356 163.708 23.1668C156.739 15.978 148.617 10.3323 139.57 6.38537C130.195 2.29509 120.245 0.221191 110 0.221191C99.7542 0.221191 89.8049 2.29509 80.4291 6.38581C71.3823 10.3323 63.2614 15.9789 56.2913 23.1672C49.3217 30.356 43.8476 38.7321 40.0213 48.0633C36.0557 57.7342 34.0446 67.9958 34.0446 78.5634V127.376H25.1509C11.4011 127.376 0.214478 138.914 0.214478 153.096V237.059C0.214478 251.241 11.4011 262.779 25.1509 262.779H194.849C208.599 262.779 219.786 251.241 219.786 237.059V153.096C219.786 138.914 208.599 127.375 194.849 127.375ZM201.412 237.058C201.412 240.796 198.473 243.827 194.849 243.827H25.1509C21.5266 243.827 18.5887 240.796 18.5887 237.058V153.096C18.5887 149.357 21.5266 146.327 25.1509 146.327H34.0454H43.2325H52.4196H167.58H176.767H185.955H194.849C198.473 146.327 201.412 149.357 201.412 153.096V237.058ZM52.4196 78.563C52.4196 45.7624 78.1988 19.1729 110 19.1729C141.801 19.1729 167.58 45.7629 167.58 78.563V127.375H52.4201V78.563H52.4196Z" fill="url(#paint0_linear)"/>
<path d="M194.849 263H25.1508C11.2827 263 0 251.363 0 237.058V153.096C0 138.791 11.2827 127.154 25.1508 127.154H33.8305V78.563C33.8305 67.9657 35.8472 57.6749 39.824 47.9766C43.6606 38.6197 49.1501 30.2201 56.1399 23.0102C63.1297 15.8011 71.2742 10.139 80.3459 6.18143C89.7479 2.08009 99.725 0 110 0C120.275 0 130.251 2.08009 139.653 6.18188C148.727 10.1399 156.871 15.802 163.86 23.0106C170.849 30.2193 176.338 38.6192 180.175 47.977C184.152 57.6745 186.169 67.9657 186.169 78.5634V127.154H194.849C208.717 127.154 220 138.792 220 153.096V237.059C220 251.363 208.718 263 194.849 263ZM25.1508 127.596C11.519 127.596 0.428903 139.036 0.428903 153.096V237.058C0.428903 251.118 11.519 262.558 25.1508 262.558H194.849C208.481 262.558 219.572 251.119 219.572 237.058V153.096C219.572 139.036 208.481 127.596 194.849 127.596H185.74V78.563C185.74 68.0245 183.735 57.7917 179.781 48.1491C175.965 38.844 170.506 30.4913 163.557 23.3234C156.607 16.1554 148.509 10.5252 139.487 6.58931C130.138 2.51053 120.217 0.442384 110 0.442384C99.7825 0.442384 89.8615 2.51053 80.5127 6.58931C71.4921 10.5248 63.3939 16.1545 56.4431 23.3234C49.4928 30.4927 44.0341 38.8449 40.2191 48.1491C36.2646 57.7926 34.2594 68.0254 34.2594 78.563V127.596H25.1508ZM194.849 244.048H25.1508C21.4142 244.048 18.3742 240.913 18.3742 237.058V153.096C18.3742 149.241 21.4142 146.106 25.1508 146.106H194.849C198.586 146.106 201.626 149.241 201.626 153.096V237.058C201.626 240.913 198.586 244.048 194.849 244.048ZM25.1508 146.549C21.6506 146.549 18.8031 149.486 18.8031 153.096V237.059C18.8031 240.669 21.6506 243.606 25.1508 243.606H194.849C198.349 243.606 201.197 240.669 201.197 237.059V153.096C201.197 149.486 198.349 146.548 194.849 146.548H25.1508V146.549ZM167.795 127.596H52.2056V78.563C52.2056 45.693 78.1323 18.9517 110.001 18.9517C141.869 18.9517 167.795 45.6934 167.795 78.563V127.596H167.795ZM52.6341 127.154H167.366V78.563C167.366 45.9372 141.631 19.3941 110 19.3941C78.3682 19.3941 52.6336 45.9372 52.6336 78.563V127.154H52.6341Z" fill="url(#paint1_linear)"/>
<defs>
<linearGradient id="paint0_linear" x1="110" y1="0.221191" x2="110" y2="262.779" gradientUnits="userSpaceOnUse">
<stop stop-color="#FF872C"/>
<stop offset="1" stop-color="#FD3A2D"/>
</linearGradient>
<linearGradient id="paint1_linear" x1="110" y1="0" x2="110" y2="263" gradientUnits="userSpaceOnUse">
<stop stop-color="#FF872C"/>
<stop offset="1" stop-color="#FD3A2D"/>
</linearGradient>
</defs>
</svg>
