<svg width="259" height="243" viewBox="0 0 259 243" fill="none" xmlns="http://www.w3.org/2000/svg">
<path d="M234.218 57.2923C237.355 51.7684 238.011 45.4292 236.067 39.4418L228.713 16.8037C227.122 11.9041 223.951 7.72111 219.544 4.70525C215.238 1.75912 210.149 0.201416 204.827 0.201416C204.826 0.201416 204.826 0.201416 204.826 0.201416C202.358 0.201416 199.908 0.544393 197.542 1.22067L29.7331 49.2023C23.352 51.0268 18.1095 55.0737 14.9729 60.5976C11.8358 66.1215 11.179 72.4607 13.124 78.4481L20.4773 101.086C21.76 105.035 24.0702 108.518 27.2253 111.3C23.7076 115.339 21.5942 120.494 21.5942 126.104V219.367C21.5942 232.287 32.7981 242.799 46.5691 242.799H221.998C235.77 242.799 246.973 232.287 246.973 219.367V126.104C246.973 113.184 235.77 102.672 221.998 102.672H100.602L219.458 68.6879C225.838 66.863 231.08 62.8162 234.218 57.2923ZM221.998 119.938C225.627 119.938 228.57 122.698 228.57 126.104V219.366C228.57 222.772 225.627 225.533 221.998 225.533H46.5682C42.9384 225.533 39.9959 222.772 39.9959 219.366V126.104C39.9959 122.698 42.9384 119.938 46.5682 119.938H221.998ZM214.092 52.1718L46.283 100.153C45.6446 100.336 44.999 100.422 44.365 100.422C41.5487 100.422 38.9439 98.7107 38.0804 96.0519L30.7272 73.4138C29.6691 70.1562 31.6258 66.7107 35.098 65.7176L202.907 17.7363C203.545 17.5538 204.191 17.4671 204.825 17.4671C207.642 17.4671 210.246 19.1788 211.11 21.8376L218.463 44.4756C219.521 47.7337 217.565 51.1792 214.092 52.1718Z" fill="url(#paint0_linear)"/>
<path d="M221.998 243H46.5691C32.6795 243 21.3794 232.398 21.3794 219.366V126.104C21.3794 120.742 23.3503 115.499 26.9337 111.318C23.8344 108.54 21.5332 105.027 20.272 101.145L12.9187 78.507C10.9573 72.4684 11.6193 66.0744 14.7834 60.5029C17.9476 54.9319 23.2347 50.85 29.6709 49.0098L197.48 1.02812C199.866 0.345798 202.337 0 204.826 0C210.194 0 215.327 1.571 219.671 4.54293C224.116 7.58458 227.313 11.8043 228.918 16.7454L236.272 39.3835C238.233 45.4224 237.571 51.8161 234.407 57.3871C231.243 62.9582 225.956 67.0401 219.52 68.8803L102.043 102.47H221.998C235.887 102.47 247.187 113.072 247.187 126.104V219.366C247.188 232.398 235.888 243 221.998 243ZM204.827 0.403028C202.38 0.403028 199.95 0.743183 197.605 1.41382L29.7959 49.3951C23.4692 51.2039 18.2724 55.216 15.1623 60.6924C12.0518 66.1683 11.4011 72.4535 13.3294 78.3889L20.6827 101.027C21.9413 104.902 24.2545 108.403 27.3723 111.153L27.5183 111.282L27.3916 111.427C23.7914 115.56 21.8085 120.773 21.8085 126.104V219.366C21.8085 232.175 32.9158 242.597 46.5687 242.597H221.998C235.65 242.597 246.758 232.176 246.758 219.366V126.104C246.758 113.295 235.651 102.874 221.998 102.874H99.1603L219.395 68.495C225.721 66.6862 230.918 62.6741 234.028 57.1977C237.137 51.7218 237.789 45.437 235.861 39.5008L228.507 16.8631C226.93 12.0058 223.786 7.85824 219.418 4.86858C215.148 1.94743 210.103 0.403028 204.827 0.403028ZM221.998 225.734H46.5682C42.8259 225.734 39.7811 222.878 39.7811 219.366V126.104C39.7811 122.593 42.8259 119.736 46.5682 119.736H221.998C225.74 119.736 228.785 122.593 228.785 126.104V219.366C228.785 222.878 225.74 225.734 221.998 225.734ZM46.5682 120.139C43.0625 120.139 40.2107 122.815 40.2107 126.104V219.366C40.2107 222.655 43.0625 225.331 46.5682 225.331H221.998C225.503 225.331 228.355 222.655 228.355 219.366V126.104C228.355 122.815 225.503 120.139 221.998 120.139H46.5682ZM44.3646 100.624C41.3593 100.624 38.7514 98.8107 37.8743 96.1113L30.521 73.4732C29.9926 71.8462 30.1709 70.1232 31.0236 68.6223C31.8758 67.1211 33.3007 66.0212 35.0348 65.5255L202.845 17.5438C203.49 17.3592 204.157 17.2657 204.825 17.2657C207.83 17.2657 210.438 19.0793 211.315 21.7788L218.669 44.4169C219.759 47.7757 217.734 51.3409 214.154 52.3646L46.3449 100.346C45.7001 100.53 45.0334 100.624 44.3646 100.624ZM204.825 17.6687C204.199 17.6687 203.575 17.7566 202.97 17.9295L35.1603 65.9108C33.5357 66.3751 32.2014 67.4052 31.4024 68.8114C30.6039 70.2175 30.4368 71.8313 30.9321 73.3551L38.2854 95.9936C39.1067 98.5222 41.5496 100.221 44.3646 100.221C44.9913 100.221 45.6155 100.133 46.2198 99.961L214.03 51.9793C217.383 51.0205 219.28 47.681 218.258 44.5346L210.905 21.8965C210.083 19.3675 207.64 17.6683 204.825 17.6687Z" fill="url(#paint1_linear)"/>
<path d="M81.8036 163.301H186.763C191.844 163.301 195.964 159.436 195.964 154.668C195.964 149.9 191.844 146.035 186.763 146.035H81.8036C76.7219 146.035 72.6024 149.9 72.6024 154.668C72.6024 159.436 76.7219 163.301 81.8036 163.301Z" fill="url(#paint2_linear)"/>
<path d="M186.762 163.502H81.8037C76.6115 163.502 72.3876 159.539 72.3876 154.668C72.3876 149.796 76.6115 145.833 81.8037 145.833H186.763C191.955 145.833 196.179 149.796 196.179 154.668C196.179 159.539 191.954 163.502 186.762 163.502ZM81.8037 146.237C76.8487 146.237 72.8172 150.019 72.8172 154.668C72.8172 159.317 76.8487 163.099 81.8037 163.099H186.763C191.718 163.099 195.749 159.317 195.749 154.668C195.749 150.019 191.718 146.237 186.763 146.237H81.8037Z" fill="url(#paint3_linear)"/>
<path d="M81.8036 199.435H186.763C191.844 199.435 195.964 195.57 195.964 190.803C195.964 186.035 191.844 182.17 186.763 182.17H81.8036C76.7219 182.17 72.6024 186.035 72.6024 190.803C72.6024 195.57 76.7219 199.435 81.8036 199.435Z" fill="url(#paint4_linear)"/>
<path d="M186.762 199.637H81.8037C76.6115 199.637 72.3876 195.674 72.3876 190.803C72.3876 185.931 76.6115 181.968 81.8037 181.968H186.763C191.955 181.968 196.179 185.931 196.179 190.803C196.179 195.674 191.954 199.637 186.762 199.637ZM81.8037 182.371C76.8487 182.371 72.8172 186.154 72.8172 190.803C72.8172 195.452 76.8487 199.234 81.8037 199.234H186.763C191.718 199.234 195.749 195.452 195.749 190.803C195.749 186.154 191.718 182.371 186.763 182.371H81.8037Z" fill="url(#paint5_linear)"/>
<defs>
<linearGradient id="paint0_linear" x1="129.5" y1="0.201416" x2="129.5" y2="242.799" gradientUnits="userSpaceOnUse">
<stop stop-color="#FD3A2D"/>
<stop offset="1" stop-color="#FF872C"/>
</linearGradient>
<linearGradient id="paint1_linear" x1="129.5" y1="0" x2="129.5" y2="243" gradientUnits="userSpaceOnUse">
<stop stop-color="#FD3A2D"/>
<stop offset="1" stop-color="#FF872C"/>
</linearGradient>
<linearGradient id="paint2_linear" x1="134.283" y1="146.035" x2="134.283" y2="163.301" gradientUnits="userSpaceOnUse">
<stop stop-color="#FD3A2D"/>
<stop offset="1" stop-color="#FF872C"/>
</linearGradient>
<linearGradient id="paint3_linear" x1="134.283" y1="145.833" x2="134.283" y2="163.502" gradientUnits="userSpaceOnUse">
<stop stop-color="#FD3A2D"/>
<stop offset="1" stop-color="#FF872C"/>
</linearGradient>
<linearGradient id="paint4_linear" x1="134.283" y1="182.17" x2="134.283" y2="199.435" gradientUnits="userSpaceOnUse">
<stop stop-color="#FD3A2D"/>
<stop offset="1" stop-color="#FF872C"/>
</linearGradient>
<linearGradient id="paint5_linear" x1="134.283" y1="181.968" x2="134.283" y2="199.637" gradientUnits="userSpaceOnUse">
<stop stop-color="#FD3A2D"/>
<stop offset="1" stop-color="#FF872C"/>
</linearGradient>
</defs>
</svg>
